<?xml version="1.0" encoding="utf-8"?>
<!-- Generator: Adobe Illustrator 28.1.0, SVG Export Plug-In . SVG Version: 6.00 Build 0)  -->
<svg version="1.1" id="Layer_2_00000127033456295763840450000015803052424568998049_"
	 xmlns="http://www.w3.org/2000/svg" xmlns:xlink="http://www.w3.org/1999/xlink" x="0px" y="0px" viewBox="0 0 458.5 309"
	 style="enable-background:new 0 0 458.5 309;" xml:space="preserve">
<style type="text/css">
	.st0{fill:#D51026;}
</style>
<g id="Layer_1-2">
	<g>
		<path class="st0" d="M0,151.1c0.2-1.3,0.5-2.6,0.7-4c2.5-17,15.6-33.7,36.2-38.3c3.5-0.8,7.1-1.1,10.7-1.1c15.8,0,31.5,0,47.3,0
			c0.6,0,1.2,0,1.8,0.1c1.6,0.3,2.5,1.2,2.8,2.8c0.1,0.6,0.1,1.2,0.1,1.8c0,7.1,0,14.3,0,21.4c0,0.6,0,1.2-0.1,1.9
			c-0.3,1.6-1.3,2.5-2.8,2.8c-0.7,0.1-1.5,0.1-2.2,0.1c-15.5,0-31,0-46.6,0c-4.8,0-8.9,1.4-12.3,4.9c-4.3,4.3-5.7,9.5-4,15.4
			s5.7,9.6,11.6,11.2c1.1,0.3,2.3,0.4,3.5,0.4c22.7,0,45.3,0,68,0c0.4,0,0.7,0,1.3-0.1c0-0.8,0.1-1.6,0.1-2.4c0-18.6,0-37.2,0-55.9
			c0-0.7,0-1.5,0.1-2.2c0.2-1.6,1.4-2.7,3-2.8c0.4,0,0.9,0,1.3,0c7.3,0,14.7,0,22,0c3.4,0,4.6,1.1,4.6,4.6c0,34.1,0,68.1,0,102.2
			c0,2.6,0.2,5.1,1.2,7.5c2.8,6.9,9.3,10.9,16.7,10.1c6.9-0.7,12.8-6.4,13.9-13.6c0.2-1.1,0.1-2.2,0.1-3.3c0-34.1,0-68.3,0-102.4
			c0-4.2,0.9-5.1,5.2-5.1c7,0,14,0,21,0c0.6,0,1.1,0,1.7,0c1.6,0.2,2.9,1.4,3,3c0.1,0.7,0,1.4,0,2.1c0,33.9,0,67.9,0,101.8
			c0,4.1,0.9,8,3.6,11.3c4.2,5.3,9.8,7.4,16.4,5.7c6.4-1.6,10.4-6,11.8-12.6c0.2-1.2,0.3-2.5,0.3-3.7c0-34.2,0-68.4,0-102.6
			c0-0.7,0-1.4,0-2.1c0.2-1.7,1.4-2.8,3-3c0.4,0,0.7,0,1.1,0c7.5,0,15,0,22.5,0c0.4,0,0.8,0,1.1,0c1.6,0.2,2.9,1.4,3,3
			c0.1,0.6,0,1.2,0,1.9c0,34.2,0,68.4,0,102.6c0,3,0.5,5.9,2,8.6c3,5.4,8.9,9.3,16.4,8.2c6.6-0.9,12-6.1,13.3-12.6
			c0.3-1.6,0.4-3.2,0.4-4.8c0-33.8,0-67.6,0-101.5c0-0.7,0-1.5,0-2.2c0.2-1.9,1.4-3,3.2-3.2c0.2,0,0.5,0,0.7,0
			c7.6,0,15.1,0.1,22.7,0c3,0,4.2,1.9,4.2,4.3c0,10.8,0,21.6,0,32.4c0,8.1,0,16.3,0,24.4c0,0.7,0,1.4,0,2.2c0.5,0.1,1,0.1,1.5,0.1
			c24.8,0,49.7,0,74.5,0c8.6,0,15.6-6.7,16-15.2c0.4-9.2-6.6-15.7-14-16.5c-1.4-0.1-2.9-0.2-4.3-0.2c-17.6,0-35.3,0-52.9,0
			c-0.7,0-1.4,0-2,0c-1.9-0.2-2.9-1.3-3.1-3.1c0-0.3,0-0.6,0-0.9c0-8.6,0-17.2,0-25.9c0-0.4,0-0.7,0.1-1
			C387,72,422.7,36.3,458.5,0.6v1.5c0,12.1,0,24.2,0,36.3c0,3.7-1.2,6.7-3.9,9.3c-19.4,19.4-38.8,38.8-58.2,58.2
			c-0.5,0.5-0.9,1-1.6,1.7c0.7,0.1,1.2,0.2,1.6,0.2c4.5,0,8.9,0,13.4,0c10.3,0.1,19.7,2.7,28.2,8.6c10.4,7.3,17.2,17.1,19.6,29.7
			c4.7,24.8-11,48.4-35.2,54.3c-3.8,0.9-7.6,1.2-11.4,1.2c-24.3,0-48.5,0-72.8,0h-2.6c0,0.9,0,1.6,0,2.2c0,4,0.1,8.1,0,12.1
			c-0.5,13.5-5.5,25.1-15.3,34.4c-7.1,6.6-15.4,10.7-25.1,12c-13.8,1.8-26-1.8-36.8-10.6c-0.3-0.3-0.7-0.5-1.1-0.9
			c-9,7.8-19.4,12-31.4,12s-22.3-4.2-31.2-12.1c-0.8,0.7-1.6,1.3-2.4,1.9c-9,7.1-19.1,10.5-30.6,10.2c-18-0.4-35.1-11.9-42.3-30.4
			c-2.3-5.9-3.3-11.9-3.2-18.2c0-3.4,0-6.8,0-10.2c0-0.7-0.1-1.3-0.1-2.2h-2.5c-21.7,0-43.3,0-65,0c-9.2,0-17.8-2.2-25.7-7
			c-11.7-7.2-19-17.5-21.9-31c-0.3-1.3-0.4-2.6-0.6-3.9c-0.1-0.5-0.2-0.9-0.4-1.4C0,155.9,0,153.6,0,151.1L0,151.1z"/>
		<path class="st0" d="M178.5,91.3c0-6.9,0-13.6,0-20.4c0-0.8,0.2-1.6,0.4-2.4c1.2-4.4,5.4-7.8,9.9-7.9c0.7,0,1.4,0,2.1,0
			c26.3,0,52.6,0,78.9,0c0.7,0,1.5,0,2.3,0v30.6C270.9,91.6,181.5,91.7,178.5,91.3L178.5,91.3z"/>
		<path class="st0" d="M334.5,278.3V309h-93.3c-0.1-0.4-0.2-0.7-0.2-1.1c0-6.3,0-12.6,0-19c0-5.3,3.9-9.1,7.6-10.1
			c1.2-0.3,2.6-0.6,3.8-0.6c26.9,0,53.8,0,80.8,0C333.5,278.2,333.9,278.2,334.5,278.3z"/>
		<path class="st0" d="M442.5,0c-30.4,30.4-60.8,60.7-91.2,91.1c0-0.1-0.1-0.5-0.1-0.9c0-7.7,0-15.4,0-23.1c0-4,1.5-7.3,4.3-10.1
			c17.9-17.8,35.7-35.7,53.5-53.6c2.3-2.3,5-3.5,8.3-3.5c7.9,0,15.9,0,23.8,0C441.6,0,442.1,0,442.5,0L442.5,0z"/>
		<path class="st0" d="M56.3,46.1c0-12.8,0-25.5,0-38.3c0-0.7,0-1.4,0-2.1c0.2-3.1,2.1-5.1,5.2-5.3c0.6,0,1.2,0,1.8,0
			c25.6,0,51.2,0,76.8,0c0.6,0,1.2,0,1.8,0c3,0.2,5,2.1,5.2,5c0,0.5,0,1,0,1.5c0,26,0,52,0,78.1c0,0.6,0,1.2,0,1.8
			c-0.3,2.8-2.2,4.7-5,4.9c-0.6,0-1.2,0-1.8,0c-25.7,0-51.4,0-77.1,0c-0.5,0-1,0-1.5,0c-3.2-0.1-5.2-2.1-5.3-5.4c0-0.7,0-1.4,0-2.1
			C56.3,71.6,56.3,58.9,56.3,46.1L56.3,46.1z M137.5,9c-0.9-1.9-2.2-2-3.5-2c-5,0-10.1-0.1-15.2-0.1c-0.8,0-1.5,0-2.3,0
			c-2.6,0.1-3.4,0.9-3.4,3.4c0,0.9,0,1.9,0,2.8c0,11.7,0,23.4,0,35.2c0,2.6-0.7,5.1-2.2,7.2c-5,7.2-13.1,7.4-18.3,1
			c-2.1-2.5-3-5.5-3-8.8c0-12.3,0-24.6,0-37c0-1.5,0-3-2.1-3.8c-6.3,0-13,0-19.6,0c-1.1,0-2,0.5-2.6,1.7c0,0.5-0.1,1.2-0.1,1.9
			c0,13.3,0,26.7,0.1,40c0,2.1,0.4,4.2,0.9,6.3C68,65,72,71.7,78.4,76.9c9.4,7.7,19.9,10.8,32,7.5c16.3-4.4,27.3-19.8,27.1-35.6
			c-0.1-11,0-22.1,0-33.1C137.5,13.4,137.5,11.1,137.5,9L137.5,9z"/>
		<path class="st0" d="M240.9,14.2v30.6H210c0-0.4-0.1-0.7-0.1-1.1c0-6.2,0-12.4,0-18.6c0.1-5.4,3.4-9.6,8.5-10.8
			c0.6-0.1,1.2-0.2,1.8-0.2c6.6,0,13.1,0,19.7,0C240.2,14.1,240.5,14.1,240.9,14.2L240.9,14.2z"/>
	</g>
</g>
</svg>
