<svg version="1.2" baseProfile="tiny-ps" xmlns="http://www.w3.org/2000/svg" viewBox="0 0 1065 676" width="1065" height="676">
	<title>t5-hero-shape-svg</title>
	<defs>
		<linearGradient id="grd1" gradientUnits="userSpaceOnUse"  x1="-170.507" y1="337.937" x2="897.608" y2="337.937">
			<stop offset="0.132" stop-color="#4f057a"  />
			<stop offset="0.15" stop-color="#580579"  />
			<stop offset="0.219" stop-color="#760575"  />
			<stop offset="0.287" stop-color="#8c0572"  />
			<stop offset="0.352" stop-color="#990571"  />
			<stop offset="0.413" stop-color="#9d0570"  />
			<stop offset="0.45" stop-color="#a9056e"  />
			<stop offset="0.556" stop-color="#c4056b"  />
			<stop offset="0.662" stop-color="#d80568"  />
			<stop offset="0.769" stop-color="#e40567"  />
			<stop offset="0.877" stop-color="#e80566"  />
		</linearGradient>
		<linearGradient id="grd2" gradientUnits="userSpaceOnUse"  x1="121.282" y1="-328.238" x2="351.892" y2="776.408">
			<stop offset="0.009" stop-color="#4f057a" stop-opacity="0.65" />
			<stop offset="0.149" stop-color="#740575" stop-opacity="0.7" />
			<stop offset="0.333" stop-color="#9d0570" stop-opacity="0.77" />
			<stop offset="0.514" stop-color="#be056c" stop-opacity="0.83" />
			<stop offset="0.686" stop-color="#d50568" stop-opacity="0.89" />
			<stop offset="0.848" stop-color="#e30567" stop-opacity="0.95" />
			<stop offset="0.987" stop-color="#e80566"  />
		</linearGradient>
	</defs>
	<style>
		tspan { white-space:pre }
		.shp0 { fill: url(#grd1) } 
		.shp1 { fill: url(#grd2) } 
	</style>
	<path id="Layer" class="shp0" d="M1049.35 -2.2C1049.35 -2.2 1126.03 167.35 887.31 113.22C648.6 59.07 685.59 133.78 717.79 171.5C752.67 212.37 799.27 237.17 795.06 277.63C789.55 330.6 679.97 332.51 587.95 366.26C365.85 447.59 616.75 379.85 701.4 418.74C786.04 457.63 734.41 486.64 617.34 483.66C364.56 477.27 448.39 537.8 490.66 565.24C532.92 592.68 525.55 655.28 326.64 612.91C127.72 570.55 132.05 630.82 103.49 650.64C40.73 694.16 -7.03 672.86 -7.03 672.86L-7.03 -2.2L1049.35 -2.2Z" />
	<path id="Layer" class="shp1" d="M168.08 -2.2C168.08 -2.2 381.28 -12.72 419.27 120.26C460.67 265.19 328.35 381.01 283.46 347.77C238.56 314.52 236.56 269.25 306.43 239.4C376.3 209.56 369.23 117.61 216.47 140.57C63.71 163.54 46.07 348.02 156.73 392.21C267.39 436.4 240.4 488.3 121.36 543.6C2.31 598.82 33.93 672.94 33.93 672.94L-7.03 672.94L-7.03 -2.2L168.08 -2.2Z" />
</svg>